<svg width="9" height="11" viewBox="0 0 9 11" fill="none" xmlns="http://www.w3.org/2000/svg">
<path d="M-9.53674e-06 9.35917V1.64084C-0.000491142 1.33612 0.0931759 1.03752 0.270149 0.779578C0.447123 0.521639 0.700166 0.314916 0.99999 0.183336C1.35573 0.0293058 1.75152 -0.0300201 2.14226 0.0121181C2.53299 0.0542562 2.90296 0.196164 3.20999 0.421669L8.30999 4.28084C8.50062 4.43228 8.65351 4.61953 8.75829 4.82988C8.86307 5.04022 8.9173 5.26876 8.9173 5.5C8.9173 5.73124 8.86307 5.95978 8.75829 6.17013C8.65351 6.38048 8.50062 6.56772 8.30999 6.71917L3.20999 10.5783C2.90296 10.8038 2.53299 10.9458 2.14226 10.9879C1.75152 11.03 1.35573 10.9707 0.99999 10.8167C0.700166 10.6851 0.447123 10.4784 0.270149 10.2204C0.0931759 9.96249 -0.000491142 9.66388 -9.53674e-06 9.35917ZM1.99999 1.83334L1.99999 9.075L6.81999 5.5L1.99999 1.83334Z" fill="#A5FFEF"/>
</svg>
