<svg width="9" height="11" viewBox="0 0 9 11" fill="none" xmlns="http://www.w3.org/2000/svg">
<path d="M0.0826931 9.35917V1.64084C0.0822115 1.33612 0.175879 1.03752 0.352852 0.779578C0.529825 0.521639 0.782868 0.314916 1.08269 0.183336C1.43843 0.0293058 1.83423 -0.0300201 2.22496 0.0121181C2.6157 0.0542562 2.98566 0.196164 3.29269 0.421669L8.39269 4.28084C8.58332 4.43228 8.73621 4.61953 8.84099 4.82988C8.94577 5.04022 9 5.26876 9 5.5C9 5.73124 8.94577 5.95978 8.84099 6.17013C8.73621 6.38048 8.58332 6.56772 8.39269 6.71917L3.29269 10.5783C2.98566 10.8038 2.6157 10.9458 2.22496 10.9879C1.83423 11.03 1.43843 10.9707 1.08269 10.8167C0.782868 10.6851 0.529825 10.4784 0.352852 10.2204C0.175879 9.96249 0.0822115 9.66388 0.0826931 9.35917ZM2.08269 1.83334L2.08269 9.075L6.90269 5.5L2.08269 1.83334Z" fill="#88BEFF"/>
</svg>
